<?xml version="1.0" encoding="UTF-8" standalone="no"?>
<svg
   viewBox="0 0 400 225"
   version="1.1"
   id="svg112"
   sodipodi:docname="icon.svg"
   inkscape:version="1.2.2 (732a01da63, 2022-12-09)"
   xmlns:inkscape="http://www.inkscape.org/namespaces/inkscape"
   xmlns:sodipodi="http://sodipodi.sourceforge.net/DTD/sodipodi-0.dtd"
   xmlns="http://www.w3.org/2000/svg"
   xmlns:svg="http://www.w3.org/2000/svg">
  <sodipodi:namedview
     id="namedview114"
     pagecolor="#ffffff"
     bordercolor="#000000"
     borderopacity="0.25"
     inkscape:showpageshadow="2"
     inkscape:pageopacity="0.0"
     inkscape:pagecheckerboard="0"
     inkscape:deskcolor="#d1d1d1"
     showgrid="false"
     inkscape:zoom="2.9667058"
     inkscape:cx="194.66035"
     inkscape:cy="139.54872"
     inkscape:window-width="1920"
     inkscape:window-height="1129"
     inkscape:window-x="-8"
     inkscape:window-y="-8"
     inkscape:window-maximized="1"
     inkscape:current-layer="g104" />
  <defs
     id="defs4">
    <style
       id="style2">
      .cls-1 {
        isolation: isolate;
      }

      .cls-2 {
        fill: #55b4ee;
      }

      .cls-3 {
        opacity: 0.15;
        mix-blend-mode: multiply;
      }

      .cls-4 {
        fill: #fff;
      }

      .cls-5 {
        fill: #6cd389;
      }

      .cls-6 {
        fill: #239630;
      }

      .cls-7 {
        fill: #ddd;
      }

      .cls-8 {
        fill: #97baf6;
      }

      .cls-9 {
        fill: #3d6084;
      }

      .cls-10 {
        opacity: 0.1;
      }

      .cls-11 {
        fill: none;
      }
    </style>
  </defs>
  <title
     id="title6">column</title>
  <g
     id="Layer_2"
     data-name="Layer 2"
     style="isolation:isolate">
    <g
       id="column">
      <g
         id="g104">
        <rect
           class="cls-2"
           x="138.78"
           y="26.629999"
           width="130.44"
           height="173.73"
           id="rect8"
           style="fill:#d40000" />
        <g
           id="g28">
          <g
             id="g16">
            <g
               class="cls-3"
               id="g12">
              <rect
                 x="158.08"
                 y="44.610001"
                 width="99.330002"
                 height="39.310001"
                 id="rect10" />
            </g>
            <rect
               class="cls-4"
               x="154.14999"
               y="40.68"
               width="99.330002"
               height="39.310001"
               id="rect14" />
          </g>
          <rect
             class="cls-5"
             x="160.66"
             y="46.169998"
             width="87.529999"
             height="7.5599999"
             rx="3.78"
             ry="3.78"
             id="rect18" />
          <rect
             class="cls-6"
             x="164.17999"
             y="48.68"
             width="73.519997"
             height="2.8"
             id="rect20" />
          <rect
             class="cls-7"
             x="164.53999"
             y="56.66"
             width="79.760002"
             height="7.5599999"
             rx="3.78"
             ry="3.78"
             id="rect22" />
          <rect
             class="cls-7"
             x="164.53999"
             y="67.260002"
             width="79.760002"
             height="7.5599999"
             rx="3.78"
             ry="3.78"
             id="rect24" />
          <path
             class="cls-6"
             d="m 245.62,48.9 -2.62,2.62 -0.49,0.49 a 0.35,0.35 0 0 1 -0.49,0 l -0.49,-0.49 -1.31,-1.31 a 0.35,0.35 0 0 1 0,-0.49 l 0.49,-0.49 a 0.35,0.35 0 0 1 0.49,0 l 1.06,1.07 2.37,-2.37 a 0.35,0.35 0 0 1 0.49,0 l 0.49,0.49 a 0.35,0.35 0 0 1 0,0.49 z"
             id="path26" />
        </g>
        <g
           id="g48">
          <g
             id="g36">
            <g
               class="cls-3"
               id="g32">
              <rect
                 x="158.08"
                 y="147.89"
                 width="99.330002"
                 height="39.310001"
                 id="rect30" />
            </g>
            <rect
               class="cls-4"
               x="154.14999"
               y="143.97"
               width="99.330002"
               height="39.310001"
               id="rect34" />
          </g>
          <rect
             class="cls-5"
             x="160.66"
             y="159.36"
             width="87.529999"
             height="7.5599999"
             rx="3.78"
             ry="3.78"
             id="rect38" />
          <rect
             class="cls-6"
             x="164.17999"
             y="161.88"
             width="73.519997"
             height="2.8"
             id="rect40" />
          <rect
             class="cls-7"
             x="164.53999"
             y="148.34"
             width="79.760002"
             height="7.5599999"
             rx="3.78"
             ry="3.78"
             id="rect42" />
          <rect
             class="cls-7"
             x="164.53999"
             y="169.78999"
             width="79.760002"
             height="7.5599999"
             rx="3.78"
             ry="3.78"
             id="rect44" />
          <path
             class="cls-6"
             d="m 245.62,162.1 -2.62,2.61 -0.49,0.49 a 0.35,0.35 0 0 1 -0.49,0 l -0.49,-0.49 -1.31,-1.31 a 0.35,0.35 0 0 1 0,-0.49 l 0.49,-0.49 a 0.35,0.35 0 0 1 0.49,0 l 1.06,1.07 2.37,-2.37 a 0.35,0.35 0 0 1 0.49,0 l 0.49,0.49 a 0.35,0.35 0 0 1 0,0.49 z"
             id="path46" />
        </g>
        <g
           id="g102">
          <g
             id="g56">
            <g
               class="cls-3"
               id="g52">
              <rect
                 x="157.96001"
                 y="93.620003"
                 width="99.089996"
                 height="44.16"
                 id="rect50" />
            </g>
            <rect
               class="cls-4"
               x="154.03999"
               y="89.690002"
               width="99.089996"
               height="44.16"
               id="rect54" />
          </g>
          <g
             id="g100">
            <rect
               class="cls-8"
               x="228.96001"
               y="113.45"
               width="17.719999"
               height="15.46"
               id="rect58" />
            <ellipse
               class="cls-4"
               cx="234.49001"
               cy="120.72"
               rx="2.3399999"
               ry="2.4200001"
               id="ellipse60" />
            <polygon
               class="cls-9"
               points="232.72,124.9 230,121.61 230,128.5 230,128.5 236.06,128.5 238.32,128.5 247,128.5 247,128.09 247,120.31 243.24,124.02 238.1,118.29 "
               id="polygon62" />
            <g
               class="cls-10"
               id="g66">
              <polygon
                 points="242.9,124.24 242.48,123.83 237.48,128.98 238.32,128.98 "
                 id="polygon64" />
            </g>
            <g
               class="cls-10"
               id="g70">
              <polygon
                 points="232.82,125.04 232.66,124.61 230,127.61 230,128.48 "
                 id="polygon68" />
            </g>
            <polygon
               class="cls-8"
               points="160.21,94.44 226.03,94.44 225.73,128.91 160.21,128.91 "
               id="polygon72" />
            <circle
               class="cls-4"
               cx="186.82001"
               cy="112.26"
               r="6.1599998"
               id="circle74" />
            <polygon
               class="cls-9"
               points="180.03,109.5 168.74,120.35 161,110.99 161,127.91 161,128.5 175.74,128.5 183.71,128.5 198.97,128.5 225.53,128.5 204.83,107.61 192.06,120.46 "
               id="polygon76" />
            <g
               class="cls-10"
               id="g80">
              <polygon
                 points="192.12,120.7 190.85,119.55 181.96,128.79 184.53,128.79 "
                 id="polygon78" />
            </g>
            <g
               class="cls-10"
               id="g84">
              <polygon
                 points="168.27,120.36 167.35,119.3 160.26,126.55 160.21,128.91 "
                 id="polygon82" />
            </g>
            <rect
               class="cls-8"
               x="228.96001"
               y="94.639999"
               width="17.719999"
               height="15.46"
               id="rect86" />
            <ellipse
               class="cls-4"
               cx="234.49001"
               cy="101.89"
               rx="2.53"
               ry="2.45"
               id="ellipse88" />
            <polygon
               class="cls-9"
               points="232.76,106.13 230,102.8 230,109.7 230,110.5 236.06,110.5 238.32,110.5 247,110.5 247,109.28 247,101.51 243.19,105.26 238.1,99.73 "
               id="polygon90" />
            <g
               class="cls-10"
               id="g94">
              <polygon
                 points="242.9,105.42 242.48,104.99 237.48,110.14 238.32,110.14 "
                 id="polygon92" />
            </g>
            <g
               class="cls-10"
               id="g98">
              <polygon
                 points="232.82,106.24 232.66,105.81 230,108.81 230,109.68 "
                 id="polygon96" />
            </g>
          </g>
        </g>
      </g>
      <rect
         class="cls-11"
         width="400"
         height="225"
         id="rect106"
         x="0"
         y="0" />
    </g>
  </g>
</svg>
